<svg xmlns="http://www.w3.org/2000/svg" xmlns:xlink="http://www.w3.org/1999/xlink" width="192" zoomAndPan="magnify" viewBox="0 0 144 143.999998" height="192" preserveAspectRatio="xMidYMid meet" version="1.0"><rect x="-14.4" width="172.8" fill="#ffffff" y="-14.4" height="172.799997" fill-opacity="1"/><rect x="-14.4" width="172.8" fill="#000000" y="-14.4" height="172.799997" fill-opacity="1"/><path fill="#2bff00" d="M 72.042969 11.402344 L 71.957031 11.402344 C 71.199219 11.402344 70.523438 10.8125 70.523438 10.050781 C 70.523438 9.207031 71.199219 8.613281 71.957031 8.613281 L 72.042969 8.613281 C 72.800781 8.613281 73.394531 9.207031 73.394531 10.050781 C 73.394531 10.8125 72.800781 11.402344 72.042969 11.402344 Z M 72.042969 11.402344 " fill-opacity="1" fill-rule="evenodd"/><path fill="#2bff00" d="M 94.59375 34.035156 L 49.40625 34.035156 C 46.621094 34.035156 44.339844 31.839844 44.339844 28.96875 L 44.339844 18.328125 C 44.339844 15.625 46.621094 13.429688 49.40625 13.429688 L 57.175781 13.429688 C 57.9375 5.910156 64.273438 0 71.957031 0 C 79.644531 0 85.976562 5.910156 86.738281 13.429688 L 94.59375 13.429688 C 97.296875 13.429688 99.574219 15.710938 99.574219 18.328125 L 99.574219 28.96875 C 99.574219 31.757812 97.296875 34.035156 94.59375 34.035156 Z M 49.40625 16.214844 C 48.226562 16.214844 47.210938 17.230469 47.210938 18.328125 L 47.210938 28.96875 C 47.210938 30.234375 48.140625 31.25 49.40625 31.25 L 94.59375 31.25 C 95.773438 31.25 96.789062 30.234375 96.789062 28.96875 L 96.789062 18.328125 C 96.789062 17.230469 95.773438 16.214844 94.59375 16.214844 L 85.386719 16.214844 C 84.542969 16.214844 83.949219 15.625 83.949219 14.78125 C 83.949219 8.191406 78.546875 2.785156 71.957031 2.785156 C 65.285156 2.785156 59.964844 8.191406 59.964844 14.78125 C 59.964844 15.625 59.289062 16.214844 58.527344 16.214844 Z M 49.40625 16.214844 " fill-opacity="1" fill-rule="evenodd"/><path fill="#2bff00" d="M 57.769531 22.210938 L 45.777344 22.210938 C 45.015625 22.210938 44.339844 21.621094 44.339844 20.777344 C 44.339844 20.015625 45.015625 19.425781 45.777344 19.425781 L 57.769531 19.425781 C 58.527344 19.425781 59.203125 20.015625 59.203125 20.777344 C 59.203125 21.621094 58.527344 22.210938 57.769531 22.210938 Z M 57.769531 22.210938 " fill-opacity="1" fill-rule="evenodd"/><path fill="#2bff00" d="M 98.222656 28.039062 L 86.230469 28.039062 C 85.386719 28.039062 84.796875 27.449219 84.796875 26.605469 C 84.796875 25.84375 85.386719 25.253906 86.230469 25.253906 L 98.222656 25.253906 C 98.984375 25.253906 99.574219 25.84375 99.574219 26.605469 C 99.574219 27.449219 98.984375 28.039062 98.222656 28.039062 Z M 98.222656 28.039062 " fill-opacity="1" fill-rule="evenodd"/><path fill="#2bff00" d="M 116.128906 132.851562 L 27.703125 132.851562 C 25.675781 132.851562 23.984375 131.078125 23.984375 128.964844 L 23.984375 31.671875 C 23.984375 29.644531 25.675781 27.957031 27.703125 27.957031 L 45.777344 27.957031 C 46.535156 27.957031 47.210938 28.546875 47.210938 29.308594 C 47.210938 30.152344 46.535156 30.742188 45.777344 30.742188 L 27.703125 30.742188 C 27.28125 30.742188 26.773438 31.164062 26.773438 31.671875 L 26.773438 128.964844 C 26.773438 129.558594 27.195312 129.980469 27.703125 129.980469 L 116.128906 129.980469 C 116.71875 129.980469 117.226562 129.558594 117.226562 128.964844 L 117.226562 31.671875 C 117.226562 31.164062 116.71875 30.742188 116.128906 30.742188 L 98.140625 30.742188 C 97.296875 30.742188 96.703125 30.152344 96.703125 29.308594 C 96.703125 28.546875 97.296875 27.957031 98.140625 27.957031 L 116.128906 27.957031 C 118.242188 27.957031 120.015625 29.644531 120.015625 31.671875 L 120.015625 128.964844 C 120.015625 131.078125 118.242188 132.851562 116.128906 132.851562 Z M 116.128906 132.851562 " fill-opacity="1" fill-rule="evenodd"/><path fill="#2bff00" d="M 116.214844 144 L 27.703125 144 C 19.507812 144 12.835938 137.242188 12.835938 129.050781 L 12.835938 31.671875 C 12.835938 23.394531 19.507812 16.722656 27.703125 16.722656 L 45.777344 16.722656 C 46.535156 16.722656 47.210938 17.3125 47.210938 18.074219 C 47.210938 18.917969 46.535156 19.507812 45.777344 19.507812 L 27.703125 19.507812 C 21.03125 19.507812 15.625 25 15.625 31.671875 L 15.625 129.050781 C 15.625 135.722656 21.03125 141.128906 27.703125 141.128906 L 116.214844 141.128906 C 122.886719 141.128906 128.289062 135.722656 128.289062 129.050781 L 128.289062 31.671875 C 128.289062 25 122.886719 19.507812 116.214844 19.507812 L 98.222656 19.507812 C 97.378906 19.507812 96.789062 18.917969 96.789062 18.074219 C 96.789062 17.3125 97.378906 16.722656 98.222656 16.722656 L 116.214844 16.722656 C 124.492188 16.722656 131.164062 23.394531 131.164062 31.671875 L 131.164062 129.050781 C 131.164062 137.242188 124.492188 144 116.214844 144 Z M 116.214844 144 " fill-opacity="1" fill-rule="evenodd"/><path fill="#2bff00" d="M 51.351562 65.117188 L 42.480469 65.117188 C 38.257812 65.117188 34.882812 61.652344 34.882812 57.515625 L 34.882812 48.5625 C 34.882812 44.339844 38.257812 40.960938 42.480469 40.960938 L 51.351562 40.960938 C 55.574219 40.960938 59.035156 44.339844 59.035156 48.5625 L 59.035156 57.515625 C 59.035156 61.652344 55.574219 65.117188 51.351562 65.117188 Z M 42.480469 43.75 C 39.863281 43.75 37.667969 45.945312 37.667969 48.5625 L 37.667969 57.515625 C 37.667969 60.132812 39.863281 62.246094 42.480469 62.246094 L 51.351562 62.246094 C 54.054688 62.246094 56.164062 60.132812 56.164062 57.515625 L 56.164062 48.5625 C 56.164062 45.945312 53.96875 43.75 51.351562 43.75 Z M 42.480469 43.75 " fill-opacity="1" fill-rule="evenodd"/><path fill="#2bff00" d="M 44.425781 58.277344 C 44.085938 58.277344 43.75 58.105469 43.496094 57.851562 L 40.792969 55.234375 C 40.203125 54.726562 40.203125 53.800781 40.707031 53.207031 C 41.300781 52.703125 42.144531 52.703125 42.734375 53.207031 L 44.425781 54.898438 L 51.097656 48.140625 C 51.6875 47.632812 52.53125 47.632812 53.125 48.140625 C 53.628906 48.730469 53.628906 49.578125 53.125 50.167969 L 45.4375 57.851562 C 45.183594 58.105469 44.761719 58.277344 44.425781 58.277344 Z M 44.425781 58.277344 " fill-opacity="1" fill-rule="evenodd"/><path fill="#2bff00" d="M 107.683594 54.476562 L 65.960938 54.476562 C 65.199219 54.476562 64.527344 53.800781 64.527344 53.039062 C 64.527344 52.277344 65.199219 51.605469 65.960938 51.605469 L 107.683594 51.605469 C 108.527344 51.605469 109.117188 52.277344 109.117188 53.039062 C 109.117188 53.800781 108.527344 54.476562 107.683594 54.476562 Z M 107.683594 54.476562 " fill-opacity="1" fill-rule="evenodd"/><path fill="#2bff00" d="M 87.246094 60.808594 L 65.960938 60.808594 C 65.199219 60.808594 64.527344 60.132812 64.527344 59.375 C 64.527344 58.613281 65.199219 57.9375 65.960938 57.9375 L 87.246094 57.9375 C 88.003906 57.9375 88.597656 58.613281 88.597656 59.375 C 88.597656 60.132812 88.003906 60.808594 87.246094 60.808594 Z M 87.246094 60.808594 " fill-opacity="1" fill-rule="evenodd"/><path fill="#2bff00" d="M 97.125 60.808594 L 92.902344 60.808594 C 92.058594 60.808594 91.46875 60.132812 91.46875 59.375 C 91.46875 58.613281 92.058594 57.9375 92.902344 57.9375 L 97.125 57.9375 C 97.886719 57.9375 98.476562 58.613281 98.476562 59.375 C 98.476562 60.132812 97.886719 60.808594 97.125 60.808594 Z M 97.125 60.808594 " fill-opacity="1" fill-rule="evenodd"/><path fill="#2bff00" d="M 87.246094 48.054688 L 65.960938 48.054688 C 65.199219 48.054688 64.527344 47.378906 64.527344 46.621094 C 64.527344 45.859375 65.199219 45.183594 65.960938 45.183594 L 87.246094 45.183594 C 88.003906 45.183594 88.597656 45.859375 88.597656 46.621094 C 88.597656 47.378906 88.003906 48.054688 87.246094 48.054688 Z M 87.246094 48.054688 " fill-opacity="1" fill-rule="evenodd"/><path fill="#2bff00" d="M 97.125 48.054688 L 92.902344 48.054688 C 92.058594 48.054688 91.46875 47.378906 91.46875 46.621094 C 91.46875 45.859375 92.058594 45.183594 92.902344 45.183594 L 97.125 45.183594 C 97.886719 45.183594 98.476562 45.859375 98.476562 46.621094 C 98.476562 47.378906 97.886719 48.054688 97.125 48.054688 Z M 97.125 48.054688 " fill-opacity="1" fill-rule="evenodd"/><path fill="#2bff00" d="M 51.351562 94.085938 L 42.480469 94.085938 C 38.257812 94.085938 34.882812 90.707031 34.882812 86.484375 L 34.882812 77.617188 C 34.882812 73.394531 38.257812 69.929688 42.480469 69.929688 L 51.351562 69.929688 C 55.574219 69.929688 59.035156 73.394531 59.035156 77.617188 L 59.035156 86.484375 C 59.035156 90.707031 55.574219 94.085938 51.351562 94.085938 Z M 42.480469 72.800781 C 39.863281 72.800781 37.667969 74.914062 37.667969 77.617188 L 37.667969 86.484375 C 37.667969 89.101562 39.863281 91.296875 42.480469 91.296875 L 51.351562 91.296875 C 54.054688 91.296875 56.164062 89.101562 56.164062 86.484375 L 56.164062 77.617188 C 56.164062 74.914062 54.054688 72.71875 51.351562 72.71875 L 42.480469 72.71875 Z M 42.480469 72.800781 " fill-opacity="1" fill-rule="evenodd"/><path fill="#2bff00" d="M 107.683594 83.359375 L 65.960938 83.359375 C 65.199219 83.359375 64.527344 82.769531 64.527344 82.007812 C 64.527344 81.25 65.199219 80.574219 65.960938 80.574219 L 107.683594 80.574219 C 108.527344 80.574219 109.117188 81.25 109.117188 82.007812 C 109.117188 82.769531 108.527344 83.359375 107.683594 83.359375 Z M 107.683594 83.359375 " fill-opacity="1" fill-rule="evenodd"/><path fill="#2bff00" d="M 87.246094 89.777344 L 65.960938 89.777344 C 65.199219 89.777344 64.527344 89.1875 64.527344 88.425781 C 64.527344 87.582031 65.199219 86.992188 65.960938 86.992188 L 87.246094 86.992188 C 88.003906 86.992188 88.597656 87.582031 88.597656 88.425781 C 88.597656 89.1875 88.003906 89.777344 87.246094 89.777344 Z M 87.246094 89.777344 " fill-opacity="1" fill-rule="evenodd"/><path fill="#2bff00" d="M 97.125 89.777344 L 92.902344 89.777344 C 92.058594 89.777344 91.46875 89.1875 91.46875 88.425781 C 91.46875 87.582031 92.058594 86.992188 92.902344 86.992188 L 97.125 86.992188 C 97.886719 86.992188 98.476562 87.582031 98.476562 88.425781 C 98.476562 89.1875 97.886719 89.777344 97.125 89.777344 Z M 97.125 89.777344 " fill-opacity="1" fill-rule="evenodd"/><path fill="#2bff00" d="M 87.246094 77.023438 L 65.960938 77.023438 C 65.199219 77.023438 64.527344 76.433594 64.527344 75.675781 C 64.527344 74.914062 65.199219 74.238281 65.960938 74.238281 L 87.246094 74.238281 C 88.003906 74.238281 88.597656 74.914062 88.597656 75.675781 C 88.597656 76.433594 88.003906 77.023438 87.246094 77.023438 Z M 87.246094 77.023438 " fill-opacity="1" fill-rule="evenodd"/><path fill="#2bff00" d="M 97.125 77.023438 L 92.902344 77.023438 C 92.058594 77.023438 91.46875 76.433594 91.46875 75.675781 C 91.46875 74.914062 92.058594 74.238281 92.902344 74.238281 L 97.125 74.238281 C 97.886719 74.238281 98.476562 74.914062 98.476562 75.675781 C 98.476562 76.433594 97.886719 77.023438 97.125 77.023438 Z M 97.125 77.023438 " fill-opacity="1" fill-rule="evenodd"/><path fill="#2bff00" d="M 51.351562 123.054688 L 42.480469 123.054688 C 38.257812 123.054688 34.882812 119.589844 34.882812 115.367188 L 34.882812 106.5 C 34.882812 102.277344 38.257812 98.898438 42.480469 98.898438 L 51.351562 98.898438 C 55.574219 98.898438 59.035156 102.277344 59.035156 106.5 L 59.035156 115.367188 C 59.035156 119.589844 55.574219 123.054688 51.351562 123.054688 Z M 42.480469 101.6875 C 39.863281 101.6875 37.667969 103.882812 37.667969 106.5 L 37.667969 115.367188 C 37.667969 118.070312 39.863281 120.265625 42.480469 120.265625 L 51.351562 120.265625 C 54.054688 120.265625 56.164062 118.070312 56.164062 115.367188 L 56.164062 106.5 C 56.164062 103.882812 54.054688 101.6875 51.351562 101.6875 Z M 42.480469 101.6875 " fill-opacity="1" fill-rule="evenodd"/><path fill="#2bff00" d="M 107.683594 112.414062 L 65.960938 112.414062 C 65.199219 112.414062 64.527344 111.820312 64.527344 110.976562 C 64.527344 110.21875 65.199219 109.625 65.960938 109.625 L 107.683594 109.625 C 108.527344 109.625 109.117188 110.21875 109.117188 110.976562 C 109.117188 111.820312 108.527344 112.414062 107.683594 112.414062 Z M 107.683594 112.414062 " fill-opacity="1" fill-rule="evenodd"/><path fill="#2bff00" d="M 87.246094 118.746094 L 65.960938 118.746094 C 65.199219 118.746094 64.527344 118.15625 64.527344 117.3125 C 64.527344 116.550781 65.199219 115.960938 65.960938 115.960938 L 87.246094 115.960938 C 88.003906 115.960938 88.597656 116.550781 88.597656 117.3125 C 88.597656 118.15625 88.003906 118.746094 87.246094 118.746094 Z M 87.246094 118.746094 " fill-opacity="1" fill-rule="evenodd"/><path fill="#2bff00" d="M 97.125 118.746094 L 92.902344 118.746094 C 92.058594 118.746094 91.46875 118.15625 91.46875 117.3125 C 91.46875 116.550781 92.058594 115.960938 92.902344 115.960938 L 97.125 115.960938 C 97.886719 115.960938 98.476562 116.550781 98.476562 117.3125 C 98.476562 118.15625 97.886719 118.746094 97.125 118.746094 Z M 97.125 118.746094 " fill-opacity="1" fill-rule="evenodd"/><path fill="#2bff00" d="M 87.246094 105.992188 L 65.960938 105.992188 C 65.199219 105.992188 64.527344 105.402344 64.527344 104.558594 C 64.527344 103.796875 65.199219 103.207031 65.960938 103.207031 L 87.246094 103.207031 C 88.003906 103.207031 88.597656 103.796875 88.597656 104.558594 C 88.597656 105.402344 88.003906 105.992188 87.246094 105.992188 Z M 87.246094 105.992188 " fill-opacity="1" fill-rule="evenodd"/><path fill="#2bff00" d="M 97.125 105.992188 L 92.902344 105.992188 C 92.058594 105.992188 91.46875 105.402344 91.46875 104.558594 C 91.46875 103.796875 92.058594 103.207031 92.902344 103.207031 L 97.125 103.207031 C 97.886719 103.207031 98.476562 103.796875 98.476562 104.558594 C 98.476562 105.402344 97.886719 105.992188 97.125 105.992188 Z M 97.125 105.992188 " fill-opacity="1" fill-rule="evenodd"/></svg>